<?xml version="1.0" standalone="no"?>
<!DOCTYPE svg PUBLIC "-//W3C//DTD SVG 1.1//EN" "http://www.w3.org/Graphics/SVG/1.1/DTD/svg11.dtd" >
<svg xmlns="http://www.w3.org/2000/svg">
<metadata>
Created by FontForge 20120731 at Sun Oct 12 17:08:50 2014
 By Ads
</metadata>
<defs>
<font id="iconfont" horiz-adv-x="1024" >
  <font-face 
    font-family="iconfont"
    font-weight="500"
    font-stretch="normal"
    units-per-em="1024"
    panose-1="2 0 6 3 0 0 0 0 0 0"
    ascent="812"
    descent="-212"
    x-height="792"
    bbox="0 -213.121 1028 812.077"
    underline-thickness="50"
    underline-position="-100"
    unicode-range="U+0078-E61B"
  />
<missing-glyph horiz-adv-x="374" 
d="M34 0v682h272v-682h-272zM68 34h204v614h-204v-614z" />
    <glyph glyph-name=".notdef" horiz-adv-x="374" 
d="M34 0v682h272v-682h-272zM68 34h204v614h-204v-614z" />
    <glyph glyph-name=".null" horiz-adv-x="0" 
 />
    <glyph glyph-name="nonmarkingreturn" horiz-adv-x="341" 
 />
    <glyph glyph-name="x" unicode="x" horiz-adv-x="1001" 
d="M281 543q-27 -1 -53 -1h-83q-18 0 -36.5 -6t-32.5 -18.5t-23 -32t-9 -45.5v-76h912v41q0 16 -0.5 30t-0.5 18q0 13 -5 29t-17 29.5t-31.5 22.5t-49.5 9h-133v-97h-438v97zM955 310v-52q0 -23 0.5 -52t0.5 -58t-10.5 -47.5t-26 -30t-33 -16t-31.5 -4.5q-14 -1 -29.5 -0.5
t-29.5 0.5h-32l-45 128h-439l-44 -128h-29h-34q-20 0 -45 1q-25 0 -41 9.5t-25.5 23t-13.5 29.5t-4 30v167h911zM163 247q-12 0 -21 -8.5t-9 -21.5t9 -21.5t21 -8.5q13 0 22 8.5t9 21.5t-9 21.5t-22 8.5zM316 123q-8 -26 -14 -48q-5 -19 -10.5 -37t-7.5 -25t-3 -15t1 -14.5
t9.5 -10.5t21.5 -4h37h67h81h80h64h36q23 0 34 12t2 38q-5 13 -9.5 30.5t-9.5 34.5q-5 19 -11 39h-368zM336 498v228q0 11 2.5 23t10 21.5t20.5 15.5t34 6h188q31 0 51.5 -14.5t20.5 -52.5v-227h-327z" />
    <glyph glyph-name="uniE600" unicode="&#xe600;" 
d="M896 -212h-768q-53 0 -90.5 37.5t-37.5 90.5v768q0 53 37.5 90.5t90.5 37.5h128v-64q0 -27 18.5 -45.5t45.5 -18.5t45.5 18.5t18.5 45.5v64h256v-64q0 -27 18.5 -45.5t45.5 -18.5t45.5 18.5t18.5 45.5v64h128q53 0 90.5 -37.5t37.5 -90.5v-768q0 -53 -37.5 -90.5
t-90.5 -37.5zM896 428q0 27 -18.5 45.5t-45.5 18.5h-640q-27 0 -45.5 -18.5t-18.5 -45.5v-448q0 -27 18.5 -45.5t45.5 -18.5h640q27 0 45.5 18.5t18.5 45.5v448zM640 172h128v-128h-128v128zM640 364h128v-128h-128v128zM448 172h128v-128h-128v128zM448 364h128v-128h-128
v128zM256 172h128v-128h-128v128zM256 364h128v-128h-128v128z" />
    <glyph glyph-name="uniE601" unicode="&#xe601;" 
d="M444 108l-152 -130l-34 130h-130v256h192v128h-192q-53 0 -90.5 -37.5t-37.5 -90.5v-256q0 -53 37.5 -90.5t90.5 -37.5h21l43 -192l299 192h21q9 0 13 2l-28 126h-53zM896 812h-384q-53 0 -90.5 -37.5t-37.5 -90.5v-256q0 -53 37.5 -90.5t90.5 -37.5h21l43 -192l299 192
h21q53 0 90.5 37.5t37.5 90.5v256q0 53 -37.5 90.5t-90.5 37.5zM896 428h-68l-152 -130l-34 130h-130v256h384v-256z" />
    <glyph glyph-name="uniE602" unicode="&#xe602;" 
d="M922 264q38 80 38 164q0 133 -75 226.5t-181 93.5q-55 0 -109 -32q-92 96 -211 96q-133 0 -226.5 -112.5t-93.5 -271.5q0 -92 38 -179q-47 -36 -74.5 -90t-27.5 -115q0 -106 75 -181t181 -75h256q98 0 169 64h119q93 0 158.5 65.5t65.5 158.5q0 58 -27.5 107.5
t-74.5 80.5zM704 620q53 0 90.5 -56t37.5 -136q0 -73 -34 -128h-115q19 61 19 128q0 94 -39 181q25 11 41 11zM674 270l2 4q-2 0 -2 -4zM384 684q80 0 136 -75t56 -181t-56 -181t-136 -75t-136 75t-56 181t56 181t136 75zM512 -84h-256q-53 0 -90.5 37.5t-37.5 90.5
q0 58 45 96q89 -96 211 -96q115 0 211 96q45 -38 45 -96q0 -53 -37.5 -90.5t-90.5 -37.5zM800 -20h-41q9 43 9 64q0 69 -36 128h68q40 0 68 -28t28 -68t-28 -68t-68 -28z" />
    <glyph glyph-name="uniE603" unicode="&#xe603;" 
d="M885 35l-143 35l-134 388l60 30l266 -284zM288 618l-128 194h373l-113 -194h-132zM467 490l152 -433l-265 -269l-267 269l152 433h228zM354 -18l137 139l-139 303l-134 -303z" />
    <glyph glyph-name="uniE604" unicode="&#xe604;" 
d="M736 812h-448q-53 0 -90.5 -37.5t-37.5 -90.5v-832q0 -27 18.5 -45.5t45.5 -18.5t45.5 18.5t18.5 45.5l222 224l226 -226v181l-181 182q-20 19 -45 19q-29 0 -45 -19l-177 -180v587q0 27 18.5 45.5t45.5 18.5h320q27 0 45.5 -18.5t18.5 -45.5v-768q0 -27 18.5 -45.5
t45.5 -18.5t45.5 18.5t18.5 45.5v832q0 53 -37.5 90.5t-90.5 37.5z" />
    <glyph glyph-name="uniE605" unicode="&#xe605;" 
d="M1024 108v-192q0 -53 -37.5 -90.5t-90.5 -37.5h-768q-53 0 -90.5 37.5t-37.5 90.5v192l128 576q14 55 46.5 91.5t81.5 36.5h512q88 0 128 -128zM768 680v6h-512v-4l-111 -572h239v-2v-64q0 -27 18.5 -45.5t45.5 -18.5h128q27 0 45.5 18.5t18.5 45.5v66h239zM256 300
q0 27 18.5 45.5t45.5 18.5h384q27 0 45.5 -18.5t18.5 -45.5t-18.5 -45.5t-45.5 -18.5h-384q-27 0 -45.5 18.5t-18.5 45.5zM640 428h-256q-27 0 -45.5 18.5t-18.5 45.5t18.5 45.5t45.5 18.5h256q27 0 45.5 -18.5t18.5 -45.5t-18.5 -45.5t-45.5 -18.5z" />
    <glyph glyph-name="uniE606" unicode="&#xe606;" 
d="M934 249l-422 -418l-422 418q-90 89 -90 215t90 216q57 57 133.5 78.5t153 3.5t135.5 -72q59 54 135.5 72t153 -3.5t133.5 -78.5q90 -88 90 -215t-90 -216zM838 586q-49 49 -119 49q-67 0 -115 -45l-92 -92l-92 92q-51 45 -115 45q-70 0 -119 -49t-49 -122q0 -70 49 -119
l328 -322l327 322q49 49 49 121t-52 120z" />
    <glyph glyph-name="uniE607" unicode="&#xe607;" 
d="M717 409l147 23q-67 -149 -115 -245l-331 -137l235 -25q-49 -43 -124 -68.5t-139.5 -32.5t-133.5 -6v-2q-3 -4 -7.5 -11t-20 -25t-30.5 -33t-36 -29.5t-40 -18.5q-73 -20 -122 -7q6 5 17.5 14t46 47t68.5 86q-2 40 -2 91.5t4 134t23 167t50 145.5l102 -183l41 339
q229 177 526 179q90 0 148 -13q-43 -102 -98 -232z" />
    <glyph glyph-name="uniE608" unicode="&#xe608;" 
d="M512 -212q-140 0 -257.5 68.5t-186 186t-68.5 257.5t68.5 257.5t186 186t257.5 68.5t257.5 -68.5t186 -186t68.5 -257.5t-68.5 -257.5t-186 -186t-257.5 -68.5zM512 684q-158 0 -271 -113t-113 -271t113 -271t271 -113t271 113t113 271t-113 271t-271 113zM704 236h-192
q-27 0 -45.5 18.5t-18.5 45.5v192q0 27 18.5 45.5t45.5 18.5t45.5 -18.5t18.5 -45.5v-128h128q27 0 45.5 -18.5t18.5 -45.5t-18.5 -45.5t-45.5 -18.5z" />
    <glyph glyph-name="uniE609" unicode="&#xe609;" 
d="M578 200v-226q36 -8 69 -23t54.5 -31.5t37.5 -32t23.5 -25t7.5 -10.5q0 -27 -18.5 -45.5t-45.5 -18.5h-384q-27 0 -45.5 18.5t-18.5 45.5q3 4 8 10.5t23 24.5t38.5 33t53.5 30.5t69 23.5v219l-448 617h128v2h768v-2h124zM239 684l164 -192h220l164 192h-548z" />
    <glyph glyph-name="uniE60A" unicode="&#xe60a;" 
d="M960 812h-896q-27 0 -45.5 -18.5t-18.5 -45.5l256 -896q0 -27 18.5 -45.5t45.5 -18.5h384q27 0 45.5 18.5t18.5 45.5l256 896q0 27 -18.5 45.5t-45.5 18.5zM640 -84h-256l-145 582l19 -74q26 4 45 4q29 0 53 -7.5t37.5 -16t37.5 -27.5q23 -18 37.5 -27.5t41 -23t58 -20
t68.5 -6.5q56 0 106 19zM785 496l-26 -19q-23 -18 -35.5 -26t-36.5 -15.5t-53.5 -7.5t-53.5 7.5t-37 16t-37 27.5q-24 18 -38 27.5t-41 23t-58 20t-68 6.5q-32 0 -75 -9l-34 137h640z" />
    <glyph glyph-name="uniE60B" unicode="&#xe60b;" horiz-adv-x="1029" 
d="M1015 328l-471 469v0q-13 13 -30 13t-30 -13l-6 -6l-465 -463q-13 -13 -13 -30t13 -30q16 -16 36 -13h70q32 -1 41 -11.5t11 -45.5v57h-17h17v-345q1 -34 25.5 -57.5t59.5 -23.5h43h42q36 0 61 25t25 60v45v76v7v-2v45h2v-43q1 25 11 33t38 10h66q31 -2 41.5 -10.5
t11.5 -36.5v47h-21h23v-56v9v-17v-111q2 -34 26.5 -57.5t59.5 -23.5h42h43q35 0 60 25t25 60v45v298q0 18 -12.5 30.5t-30 12.5t-30 -12.5t-12.5 -30.5v-260v-26v18v-75v55q0 -32 -8 -43t-37 -12q-29 3 -34.5 17t-5.5 68v-15v54v44q0 36 -25 61t-61 25h-42v2h-86h-42
q-35 0 -60.5 -25t-25.5 -60v-109q0 -36 -7 -47t-33 -13q-24 2 -33 9.5t-12 28.5v256v45q0 35 -25 60.5t-60 25.5h-28l369 366l440 -439q12 -13 29.5 -13t29.5 13q15 13 15 30t-13 30zM685 -86h21h-21zM258 -86h21h-21zM173 198v-30v30z" />
    <glyph glyph-name="uniE60C" unicode="&#xe60c;" 
d="M1011 -139l-136 136l-148 147h-61q0 -2 -3 -2q-101 -98 -238 -98q-93 0 -171.5 46t-124.5 124.5t-46 171t46 171t124.5 124.5t171 46t171 -46t124.5 -124.5t46 -171.5q0 -48 -13 -89l4 -5q-10 -14 -10 -29v-5q0 -17 12.5 -29.5t29.5 -12.5q21 0 30 12l2 -2q1 2 2.5 5.5
t2.5 5.5q4 9 4 15q21 71 21 132q0 117 -57 215t-155.5 155t-213.5 57q-115 1 -213 -55.5t-155 -154.5t-57 -214.5t57.5 -215t155.5 -155t214 -56.5q151 0 271 96l253 -254q13 -13 30 -13t30 13q13 11 13 29t-13 31z" />
    <glyph glyph-name="uniE60D" unicode="&#xe60d;" 
d="M489 686q135 0 239.5 -84.5t135.5 -214.5h11v-4q0 -17 12.5 -29.5t30 -12.5t30 12.5t12.5 29.5v303q0 18 -12.5 30.5t-30 12.5t-30 -12.5t-12.5 -30.5v-115q-66 92 -166.5 145t-217.5 53q-96 0 -183 -37t-150 -100t-100 -150t-37 -182q0 -96 37.5 -183t100.5 -149.5
t150 -99.5t182 -37q151 0 272 87t169 226q9 13 9 24q0 2 2 4h-4q0 18 -12.5 30.5t-30.5 12.5t-30.5 -12.5t-12.5 -30.5h-2q-40 -114 -139 -185t-223 -71q-105 0 -193.5 51.5t-139.5 140t-51 192.5q0 105 51 194t139.5 140.5t193.5 51.5z" />
    <glyph glyph-name="uniE60E" unicode="&#xe60e;" 
d="M525 769q-96 0 -183 -37t-149.5 -100t-100 -150t-37.5 -182q0 -118 58 -226q3 -13 14.5 -21.5t26.5 -8.5q17 0 29.5 12.5t12.5 30.5v4q0 13 -7 24.5t-18 15.5l6 7q-36 76 -36 164q0 105 51.5 193.5t140 139.5t192.5 51t192.5 -51.5t140 -140t51.5 -192.5
q0 -105 -51.5 -193.5t-140 -139.5t-192.5 -51q-125 0 -226 75q-13 13 -32 13q-18 0 -30.5 -12.5t-12.5 -30.5v-4q0 -15 8.5 -26.5t21.5 -14.5q123 -85 269 -85q95 0 182.5 37t150 100t99.5 150t37 182q1 95 -35.5 181.5t-99 149t-149.5 99.5t-183 37zM452 99q13 -12 30 -12
t30 12l164 167l5 4q12 13 12 30t-12 30l-5 4l-164 167q-13 12 -30 12t-30 -12.5t-13 -29.5t13 -30l141 -141l-139 -141q-14 -12 -14.5 -30t12.5 -30z" />
    <glyph glyph-name="uniE60F" unicode="&#xe60f;" 
d="M939 -122q0 8 -2 10q-15 112 -83.5 201.5t-170.5 133.5q60 41 95 106.5t35 141.5q0 123 -88 210.5t-211 87.5t-211 -87.5t-88 -210.5q0 -76 35.5 -141.5t95.5 -106.5q-102 -42 -170 -130.5t-84 -199.5q-2 -5 -2 -15v-5q0 -17 12.5 -29.5t30 -12.5t30 12.5t12.5 29.5v0
q14 124 107.5 210t220.5 89h11h11q126 -3 219 -88t109 -211v0q0 -17 12.5 -29.5t30.5 -12.5t30.5 12.5t12.5 29.5v5zM514 257q-88 0 -150.5 63t-62.5 151t62.5 150.5t150.5 62.5t150.5 -62.5t62.5 -150.5t-62.5 -151t-150.5 -63z" />
    <glyph glyph-name="uniE610" unicode="&#xe610;" 
d="M186 87h27h-27zM715 87h53v57q-2 -36 -11 -46t-42 -11zM715 87h-32h32zM981 658q-6 30 -30 49.5t-55 19.5h-45h-595q-18 0 -30.5 -12.5t-12.5 -30.5t12.5 -30.5t30.5 -12.5h640v-426q0 -18 12.5 -30.5t30 -12.5t30 12.5t12.5 30.5v443zM853 526q-5 31 -29 52t-56 21h-644
q-34 -2 -57.5 -26.5t-23.5 -59.5v-431q1 -34 25.5 -57.5t59.5 -23.5h45h126q17 0 29.5 12.5t12.5 30.5t-12.5 30.5t-29.5 12.5h-171h58q-34 0 -45 7.5t-13 34.5v333q2 32 12.5 41.5t45.5 9.5h512h12h-8h64v-62v62h-56q37 -1 46.5 -12t11.5 -54v-143v-4v-141v-15v11v-68h-299
h-2q-21 0 -36 -20l-166 -164q-13 -13 -13 -30t12.5 -29.5t29.5 -12.5t30 12l160 158h237h47q33 0 56.5 22t28.5 53v177v2v271zM128 513v-30v30h28h-28zM836 641q37 0 47.5 -9t10.5 -40v47zM836 641h-27h27zM894 556v36v-36z" />
    <glyph glyph-name="uniE611" unicode="&#xe611;" 
d="M981 658q-6 30 -30 49.5t-55 19.5h-45h-595q-18 0 -30.5 -12.5t-12.5 -30.5t12.5 -30.5t30.5 -12.5h640v-426q0 -18 12.5 -30.5t30 -12.5t30 12.5t12.5 30.5v443zM365 1l-100 -98q-13 -13 -13 -30t12.5 -29.5t29.5 -12.5t30 12l160 158h237h47q33 0 56.5 22t28.5 53v177
v2v271q-5 31 -29 52t-56 21h-644q-34 -2 -57.5 -26.5t-23.5 -59.5v-431q1 -34 25.5 -57.5t59.5 -23.5h45h126h66zM768 304v-4v4zM836 641q37 0 47.5 -9t10.5 -40v47zM836 641h-27h27zM894 556v36v-36z" />
    <glyph glyph-name="uniE612" unicode="&#xe612;" horiz-adv-x="1029" 
d="M1015 328l-471 469v0q-13 13 -30 13t-30 -13l-6 -6l-465 -463q-13 -13 -13 -30t13 -30q16 -16 36 -13h70q32 -1 41 -11.5t11 -45.5v57h-17h17v-345q1 -34 25.5 -57.5t59.5 -23.5h43h42q36 0 61 25t25 60v45v76v7v-2v45v-43q1 25 11.5 33t39.5 10h66q32 -2 43 -11t12 -36
v47h-23h23v-56v9v-17v-111q2 -34 26.5 -57.5t59.5 -23.5h42h43q35 0 60 25t25 60v45v262q0 14 11 25t26 11h59q43 0 62 11q15 13 15 30t-13 30zM685 -86h21h-21zM258 -86h21h-21zM173 198v-30v30z" />
    <glyph glyph-name="uniE613" unicode="&#xe613;" 
d="M1011 -139l-136 136l-111 111q19 26 42 68q45 82 45 209q0 117 -57 215t-155.5 155t-213.5 57q-86 0 -164.5 -33.5t-135.5 -90.5t-91 -136.5t-34 -166.5q0 -116 57.5 -214.5t155.5 -155t214 -56.5q151 0 271 96l253 -254q13 -13 30 -13t30 13q13 11 13 29t-13 31z" />
    <glyph glyph-name="uniE614" unicode="&#xe614;" 
d="M939 -122q0 8 -2 10q-15 112 -83.5 201.5t-170.5 133.5q60 41 95 106.5t35 141.5q0 123 -88 210.5t-211 87.5t-211 -87.5t-88 -210.5q0 -76 35.5 -141.5t95.5 -106.5q-102 -42 -170 -130.5t-84 -199.5q-2 -5 -2 -15v-5q0 -17 12.5 -29.5t29.5 -12.5h764q18 0 30.5 12.5
t12.5 29.5v5z" />
    <glyph glyph-name="uniE615" unicode="&#xe615;" horiz-adv-x="1025" 
d="M1005 -193q-19 -19 -45.5 -19t-44.5 19l-200 201q-87 -65 -192.5 -83.5t-209 13.5t-181.5 110q-86 86 -116.5 201.5t-0.5 231t115 201.5q65 64 148.5 97t168.5 33t168.5 -33t148.5 -97q78 -79 110 -182.5t13.5 -208.5t-83.5 -192l201 -200q19 -21 19 -47.5t-19 -44.5z
M674 590q-93 93 -225.5 93t-226.5 -93q-93 -93 -93 -225.5t93 -226.5q93 -93 225.5 -93t226.5 93q93 94 93 226.5t-93 225.5z" />
    <glyph glyph-name="uniE616" unicode="&#xe616;" 
d="M896 -212h-576h-192q-53 0 -90.5 37.5t-37.5 90.5v512q0 53 37.5 90.5t90.5 37.5h64v128q0 53 37.5 90.5t90.5 37.5h576q53 0 90.5 -37.5t37.5 -90.5v-768q0 -53 -37.5 -90.5t-90.5 -37.5zM896 620q0 27 -18.5 45.5t-45.5 18.5h-448q-27 0 -45.5 -18.5t-18.5 -45.5v-576
q0 -27 -18.5 -45.5t-45.5 -18.5t-45.5 18.5t-18.5 45.5v384q-27 0 -45.5 -18.5t-18.5 -45.5v-384q0 -27 18.5 -45.5t45.5 -18.5v0h192h448q27 0 45.5 18.5t18.5 45.5v640zM448 172h320v-128h-320v128zM448 364h320v-128h-320v128zM448 556h320v-128h-320v128z" />
    <glyph glyph-name="uniE617" unicode="&#xe617;" 
d="M896 183v505q-2 34 -26 57.5t-59 23.5h-602q-33 -1 -57 -26t-24 -59v-45v-678v-45q0 -35 25 -60t60 -25h43h126q17 0 30 12.5t13 30t-13 30t-30 12.5h-135h52q-52 0 -69 16t-17 69v-87v768v-85q0 53 17 69t69 16h-28h493l-39 2q50 0 67 -13.5t19 -56.5v-399h-169h-45
q-35 0 -60 -25t-25 -61v-42v-205q-3 -21 11 -39q5 -5 15 -8q6 -4 17 -4q21 0 36 19l284 286l2 2q1 0 2 1t2 1q2 0 2 2q15 15 15 32q-2 2 -2 9zM811 684v-28v28zM597 -22v70q0 49 17 65t71 16h-86v-76v76h152zM299 471h426q18 0 30.5 12.5t12.5 30t-12.5 30t-30.5 12.5h-426
q-18 0 -30.5 -12.5t-12.5 -30.5t12 -30t31 -12zM299 300h426q18 0 30.5 12.5t12.5 30t-12.5 30t-30.5 12.5h-426q-18 0 -30.5 -12.5t-12.5 -29.5q0 -18 12 -30.5t31 -12.5z" />
    <glyph glyph-name="uniE618" unicode="&#xe618;" 
d="M512 599q-60 0 -120.5 -15t-109.5 -39t-94 -53t-78.5 -58t-58.5 -52.5t-38 -38.5l-13 -15v-54q0 -2 24.5 -29t72.5 -68t108 -80t142.5 -67.5t164.5 -28.5t165 28.5t142.5 67.5t107.5 80t72.5 67.5t24.5 27.5v54q0 2 -24.5 29t-72.5 68t-108 80t-142.5 67.5t-164.5 28.5z
M510 117q-74 0 -126.5 52.5t-52.5 126t52.5 126.5t126 53t126.5 -53t53 -126q0 -74 -52 -126.5t-127 -52.5zM510 379q-34 0 -57.5 -24t-23.5 -57.5t23.5 -57t57 -23.5t57.5 23.5t24 57.5t-23 57.5t-58 23.5z" />
    <glyph glyph-name="uniE619" unicode="&#xe619;" horiz-adv-x="1027" 
d="M973 202q34 -9 42 -60.5t-11 -101t-53 -54.5q5 -17 6 -39t-6 -51t-24.5 -52.5t-55.5 -40t-92 -15.5q-64 0 -116.5 10.5t-88.5 25.5t-68 30t-69.5 25.5t-78.5 10.5v7v-109h-104h-107h-42q-44 0 -74.5 32t-30.5 77v497q0 45 30.5 77t74.5 32h42h105h104v-109q58 23 103 65
t69.5 87t44.5 92.5t30.5 85.5t23 62.5t26.5 25.5q59 1 102 -11t66 -31.5t34 -47.5t11 -55.5t-7 -60t-16 -56.5t-21 -48.5t-16.5 -33t-7.5 -12.5q4 1 11.5 3.5t29.5 6t42 4t45.5 -5.5t45 -19.5t35 -41.5t19.5 -67q-1 -9 -2.5 -28.5t-3 -27.5t-6.5 -23t-15 -27.5t-26 -27.5z
M719 400l31 76q76 207 2 260q-24 17 -63 16q-8 0 -15 -19t-15.5 -50t-20.5 -70t-35 -82t-54 -83t-81.5 -75.5t-113.5 -57.5v0v0v0v-1v0v-1v-1v-1v-1v-1v-1v-1v-1v-1v-1v-1v-1v-1v-1v-1v-1v-1v-1v-1v-1v-1v-1v-1v-1v-1v-1v-1v-1v-1v-1v-10v-298q40 0 94 -19t100 -42t107 -42
t113 -19q37 0 61.5 12t34 30.5t11.5 40.5t-3.5 41t-13.5 32q35 13 52.5 44.5t16.5 63.5t-12.5 58.5t-29.5 31.5q35 46 46 67t14 48q-8 93 -152 87q-41 -2 -74 -10z" />
    <glyph glyph-name="uniE61A" unicode="&#xe61a;" 
d="M970 399q34 9 42 60t-11 100.5t-53 54.5q5 17 6 39t-6 51.5t-24.5 52.5t-55.5 39.5t-92 15.5q-64 0 -117 -10.5t-89 -25.5t-68 -30t-69.5 -25.5t-78.5 -10.5v-7v107h-104h-104h-43q-41 0 -71.5 -32t-30.5 -77v-496q0 -44 30.5 -76t73.5 -32h43h104h105v108
q57 -23 102 -65t69.5 -86.5t44.5 -92.5t30 -85.5t22.5 -62t26.5 -25.5q60 -1 102.5 11t65.5 31.5t34 47.5t11.5 55.5t-7 60t-16.5 56.5t-20.5 48.5t-16.5 32.5t-8 13q5 -2 12 -4t29 -5.5t42 -3.5t45 6t44 19.5t34.5 41.5t19.5 67q-1 6 -2 24t-1.5 23.5t-4 19.5t-8.5 22
t-14.5 20.5t-22.5 24.5zM716 201l32 -76q75 -207 0 -260q-23 -16 -61 -15q-8 0 -15 19t-15.5 50t-21 70t-35 82t-53.5 82.5t-81.5 75.5t-113.5 57v0v0v0v1v0v1v1v1v1v1v1v1v1v1v1v1v1v1v1v1v1v1v1v1v1v1v1v1v1v1v1v1v1v1v1v10v298q40 0 94 19t100 41.5t107 41.5t112 19
q37 1 62 -11.5t34.5 -31t11 -40t-3.5 -41t-14 -31.5q35 -13 52.5 -44.5t16.5 -63.5t-12.5 -59t-29.5 -31q35 -46 46 -67t14 -48q-8 -93 -151 -87q-41 2 -75 10z" />
    <glyph glyph-name="uniE61B" unicode="&#xe61b;" 
d="M793 -37l-341 339l339 335q31 30 31 72t-30.5 72.5t-73.5 30.5t-74 -30l-403 -397q-2 -1 -6 -4t-7 -5q-29 -26 -29 -72q0 -43 29 -72q5 -5 13 -9l405 -401q31 -30 74 -30t73 30q32 27 32 68.5t-32 72.5z" />
  </font>
</defs>
</svg>
